<?xml version="1.0" encoding="iso-8859-1"?>
<!-- Generator: Adobe Illustrator 19.0.0, SVG Export Plug-In . SVG Version: 6.00 Build 0)  -->
<svg version="1.1" id="Layer_1" xmlns="http://www.w3.org/2000/svg" xmlns:xlink="http://www.w3.org/1999/xlink" x="0px" y="0px"
	 viewBox="0 0 21.622 21.066" style="enable-background:new 0 0 21.622 21.066;" xml:space="preserve">
<path style="fill:#424143;" d="M1.727,12.699c-0.354-0.032-0.716-0.032-1.061-0.107c-0.277-0.06-0.726-0.019-0.66-0.491
	c0.05-0.357,0.4-0.483,0.719-0.522c0.312-0.038,0.634,0.015,0.949-0.006c0.568-0.038,1.134,0.039,1.087,0.737
	C2.716,12.978,2.135,12.712,1.727,12.699z"/>
<path style="fill:#343435;" d="M19.744,12.107c0.641,0.28,1.412,0.142,1.823,0.787c0.098,0.154,0.073,0.433-0.134,0.517
	c-0.652,0.265-1.204-0.184-1.798-0.318c-0.315-0.072-0.799-0.134-0.649-0.638C19.087,12.113,19.472,12.123,19.744,12.107z"/>
<path style="fill:#323233;" d="M18.029,17.853c-0.128,0.106-0.26,0.242-0.415,0.338c-0.227,0.141-0.437,0.12-0.615-0.113
	c-0.213-0.28-0.442-0.547-0.668-0.817c-0.268-0.321-1.043-0.542-0.562-1.038c0.388-0.4,0.826,0.234,1.168,0.505
	C17.323,17.033,17.848,17.224,18.029,17.853z"/>
<path style="fill:#303031;" d="M14.843,20.522c0.019,0.384-0.211,0.464-0.526,0.441c-0.26-0.019-0.495-0.129-0.502-0.404
	c-0.017-0.68-0.717-1.287-0.213-2.017c0.107-0.155,0.265-0.206,0.39-0.059C14.488,19.071,14.598,19.826,14.843,20.522z"/>
<path style="fill:#2C2B2C;" d="M4.328,8.019C3.505,7.78,2.977,7.284,2.378,6.92c-0.262-0.159-0.382-0.426-0.16-0.705
	c0.213-0.269,0.481-0.052,0.624,0.06C3.41,6.72,4.355,6.844,4.328,8.019z"/>
<path style="fill:#2B2B2C;" d="M5.339,16.109c-0.277,0.767-0.835,1.169-1.233,1.688c-0.243,0.317-0.537,0.324-0.815,0.094
	c-0.405-0.336-0.042-0.634,0.182-0.735C4.087,16.879,4.342,16.005,5.339,16.109z"/>
<path style="fill:#3B3A3C;" d="M17.872,8.907c0.682-0.848,1.504-0.935,2.176-1.286c0.266-0.139,0.46-0.029,0.554,0.223
	c0.122,0.326-0.028,0.505-0.357,0.596C19.539,8.636,18.853,8.922,17.872,8.907z"/>
<path style="fill:#434344;" d="M8.789,21.066c-0.335-0.206-0.555-0.413-0.337-0.791c0.256-0.444,0.493-0.9,0.769-1.331
	c0.09-0.141,0.09-0.433,0.365-0.374c0.24,0.052,0.303,0.305,0.243,0.473c-0.212,0.59-0.463,1.167-0.724,1.738
	C9.048,20.905,8.888,20.981,8.789,21.066z"/>
<path style="fill:#363537;" d="M12.787,0.413c-0.265,0.777-0.458,1.382-0.68,1.975c-0.061,0.162-0.116,0.423-0.398,0.326
	c-0.231-0.079-0.27-0.311-0.228-0.496c0.15-0.655,0.332-1.302,0.508-1.951c0.062-0.229,0.221-0.321,0.449-0.235
	C12.694,0.129,12.81,0.317,12.787,0.413z"/>
<path style="fill:#474648;" d="M8.292,8.6c1.022,0.323,1.183,1.252,1.774,1.746c0.112,0.093-0.017,0.348-0.167,0.369
	c-0.368,0.052-0.76-0.06-0.93-0.38C8.707,9.84,8.553,9.289,8.292,8.6z"/>
<path style="fill:#414143;" d="M14.546,12.013c-0.704,0-1.407,0.004-2.111-0.002c-0.347-0.003-0.676-0.129-0.623-0.52
	c0.051-0.378,0.406-0.29,0.666-0.221c0.692,0.184,1.379,0.388,2.068,0.585C14.546,11.908,14.546,11.96,14.546,12.013z"/>
<path style="fill:#343435;" d="M15.879,18.4c-0.067,0.136-0.091,0.277-0.171,0.327c-0.156,0.096-0.3,0.007-0.39-0.139
	c-0.347-0.566-0.687-1.137-1.035-1.702c-0.089-0.145-0.165-0.296,0.041-0.378c0.129-0.051,0.382-0.087,0.419-0.028
	C15.14,17.107,15.505,17.756,15.879,18.4z"/>
<path style="fill:#454547;" d="M10.662,7.716c0.575,0.706,0.236,1.421,0.375,2.109c0.033,0.164,0.104,0.43-0.177,0.476
	c-0.303,0.049-0.465-0.231-0.452-0.43C10.454,9.15,10.571,8.434,10.662,7.716z"/>
<path style="fill:#464547;" d="M14.861,9.613c-0.419,0.28-0.84,0.558-1.258,0.839c-0.341,0.229-0.657,0.102-0.786-0.204
	c-0.152-0.356,0.243-0.437,0.47-0.525c0.361-0.14,0.747-0.217,1.122-0.32C14.541,9.515,14.762,9.432,14.861,9.613z"/>
<path style="fill:#2A2A2B;" d="M11.01,12.513c-0.067,0.885,0.217,1.798-0.211,2.655c-0.167-0.811-0.335-1.621-0.502-2.432
	C10.46,12.424,10.674,12.273,11.01,12.513z"/>
<path style="fill:#414143;" d="M14.495,14.411c-0.475-0.416-0.963-0.818-1.417-1.254c-0.153-0.147-0.382-0.405-0.199-0.6
	c0.211-0.225,0.561-0.149,0.739,0.088c0.388,0.516,0.724,1.071,1.081,1.61C14.631,14.307,14.563,14.359,14.495,14.411z"/>
<path style="fill:#4B4B4D;" d="M9.818,3.83C9.225,3.124,9.522,2.298,9.254,1.57c-0.049-0.132,0.024-0.331,0.23-0.338
	c0.253-0.009,0.33,0.173,0.331,0.386C9.821,2.355,9.818,3.093,9.818,3.83z"/>
<path style="fill:#4A4A4C;" d="M4.937,13.67c0.543-0.913,1.396-0.994,1.995-1.432c0.097-0.071,0.248-0.055,0.258,0.085
	c0.01,0.137-0.017,0.329-0.107,0.412C6.53,13.242,5.844,13.442,4.937,13.67z"/>
<path style="fill:#48484A;" d="M9.234,6.02c0.257,0.64,0.519,1.278,0.767,1.92c0.072,0.186,0.119,0.415-0.167,0.452
	C9.707,8.409,9.454,8.318,9.442,8.246C9.323,7.513,8.799,6.851,9.234,6.02z"/>
<path style="fill:#49494B;" d="M12.185,18.268c0.126-0.488-0.811-1.196,0.307-1.478c0.435,0.84,0.258,1.708,0.182,2.624
	C12.13,19.129,12.558,18.544,12.185,18.268z"/>
<path style="fill:#595A5C;" d="M17.196,11.135c-0.771-0.434-1.701-0.028-2.529-0.435c1.077-0.61,2.376-0.358,2.509,0.442
	L17.196,11.135z"/>
<path style="fill:#57575A;" d="M17.154,12.537c-0.294-0.101-0.604-0.17-0.877-0.311c-0.318-0.163-1.062,0.177-0.932-0.342
	c0.16-0.64,0.801-0.223,1.181-0.027c0.241,0.124,0.443,0.094,0.671,0.107c0.229,0.012,0.387,0.16,0.348,0.383
	C17.517,12.513,17.329,12.548,17.154,12.537z"/>
<path style="fill:#4A4A4C;" d="M14.973,5.04c0.475-0.727,0.747-1.168,1.047-1.589c0.136-0.191,0.32-0.369,0.585-0.152
	c0.226,0.185,0.253,0.492,0.087,0.625C16.246,4.278,15.738,4.554,14.973,5.04z"/>
<path style="fill:#282829;" d="M12.211,16.277c-0.374-0.833-0.813-1.656-0.447-2.616c0.546,0.009,0.627,0.366,0.596,0.802
	c-0.033,0.466,0.077,0.941-0.081,1.4C12.256,16.002,12.233,16.139,12.211,16.277z"/>
<path style="fill:#464547;" d="M17.176,11.142c0.942-0.465,1.346-0.429,2.589,0.304c-0.979,0.112-1.786,0.055-2.566-0.313
	C17.196,11.135,17.176,11.142,17.176,11.142z"/>
<path style="fill:#535355;" d="M8.052,2.951c0.554,0.628,1.108,1.28,1.031,2.463C8.321,4.601,8.288,3.738,8.052,2.951z"/>
<path style="fill:#3E3D3F;" d="M16.364,13.429c-0.755,0.244-1.318,0.06-1.804-0.372c-0.155-0.137-0.327-0.267-0.19-0.473
	c0.135-0.201,0.347-0.119,0.522-0.019C15.385,12.85,15.874,13.141,16.364,13.429z"/>
<path style="fill:#424244;" d="M4.004,15.26c0.451-0.344,0.888-0.708,1.358-1.024c0.191-0.128,0.496-0.165,0.642,0.062
	c0.188,0.293-0.142,0.471-0.309,0.528C5.141,15.014,4.721,15.56,4.004,15.26z"/>
<path style="fill:#404041;" d="M13.289,8.498c-0.437,0.677-0.733,1.132-1.026,1.589c-0.201,0.314-0.437,0.261-0.695,0.081
	c-0.403-0.282-0.111-0.485,0.114-0.591C12.195,9.334,12.427,8.698,13.289,8.498z"/>
<path style="fill:#4F4F51;" d="M8.171,19.069c-0.162-0.228-0.208-0.264-0.203-0.29c0.138-0.721,0.307-1.432,0.876-1.957
	c0.031-0.028,0.282,0.094,0.278,0.13C9.033,17.729,8.554,18.315,8.171,19.069z"/>
<path style="fill:#5D5E60;" d="M10.775,2.717c0.408,0.69,0.335,1.386,0.066,2.085C10.472,4.111,10.67,3.414,10.775,2.717z"/>
<path style="fill:#A0A2A5;" d="M11.038,15.61c0.646,0.717,0.599,1.776-0.098,2.166c-0.12-0.037-0.169-0.114-0.136-0.239
	C11.27,16.942,10.954,16.252,11.038,15.61z"/>
<path style="fill:#4A4A4C;" d="M6.872,13.485c0.544-0.307,0.865-0.951,1.6-0.957c0.055,0,0.165,0.262,0.159,0.266
	c-0.516,0.344-1.042,0.674-1.567,1.005C7.001,13.694,6.937,13.589,6.872,13.485z"/>
<path style="fill:#545557;" d="M3.1,8.353C4.193,8.51,4.921,8.628,5.496,9.48C4.569,9.389,4.001,8.925,3.1,8.353z"/>
<path style="fill:#4C4D4F;" d="M12.033,6.987c0.056-0.509,0.149-1.433,0.469-1.333c0.674,0.211-0.146,0.793-0.058,1.268
	c0.065,0.352,0.107,0.78-0.157,1.123C11.853,7.777,12.266,7.304,12.033,6.987z"/>
<path style="fill:#121112;" d="M17.927,7.722c-0.555,0.718-1.379,0.463-2.094,0.6C16.438,7.782,17.221,7.892,17.927,7.722z"/>
<path style="fill:#535355;" d="M6.757,15.15c0.009-0.039,0.004-0.096,0.028-0.113c0.372-0.259,0.446-0.875,1.026-0.868
	c0.076,0.001,0.227,0.164,0.215,0.228c-0.111,0.585-0.598,0.763-1.076,0.943C6.855,15.309,6.792,15.244,6.757,15.15z"/>
<path style="fill:#2F2F30;" d="M9.566,15.377c0.034,0.267-0.266,0.561-0.31,0.443c-0.374-0.99-0.683,0.121-1.047-0.019
	c-0.067-0.905,0.244-1.223,1.119-0.729C9.493,15.108,9.509,15.258,9.566,15.377z"/>
<path style="fill:#2F2F30;" d="M8.172,11.335c0.076-0.016,0.16-0.061,0.226-0.042c0.329,0.095,0.953-0.268,0.937,0.296
	c-0.013,0.468-0.58,0.297-0.956,0.245c-0.382-0.054-0.771-0.06-1.157-0.087C7.328,11.123,7.917,11.616,8.172,11.335z"/>
<path style="fill:#363537;" d="M9.105,12.954c0.124-0.502,0.324-0.923,0.943-0.915c0.476,0.197,0.359,0.447,0.064,0.713
	c-0.238,0.164-0.476,0.328-0.714,0.492C9.155,13.295,9.032,13.224,9.105,12.954z"/>
<path style="fill:#5D5E61;" d="M10.299,11.845c-0.212-0.394-0.068-0.826,0.291-0.836c0.506-0.015,0.567,0.534,0.656,0.949
	C10.876,12.374,10.579,12.184,10.299,11.845z"/>
<path style="fill:#2A2A2B;" d="M9.566,15.377c-0.079-0.101-0.158-0.203-0.237-0.304c-0.009-0.039-0.028-0.078-0.026-0.116
	c0.013-0.395-0.014-0.817,0.431-1.017c0.077-0.035,0.27,0.023,0.307,0.093c0.227,0.419-0.014,0.751-0.249,1.075
	C9.723,15.202,9.642,15.287,9.566,15.377z"/>
<path style="fill:#3F3E40;" d="M12.696,13.659c-0.295,0.176-0.442-0.067-0.62-0.221c-0.273-0.353-0.529-0.713-0.559-1.181
	C12.516,12.214,12.266,13.223,12.696,13.659z"/>
<path style="fill:#353436;" d="M17.989,9.379c-0.779,0.325-1.569,0.274-2.501,0.142c0.348-0.531,0.735-0.369,1.083-0.343
	C17.021,9.409,17.546,9.101,17.989,9.379z"/>
<path style="fill:#474749;" d="M4.29,11.236c-0.56-0.091-1.121-0.177-1.68-0.279c-0.056-0.01-0.095-0.117-0.23-0.297
	c0.776-0.243,1.35,0.163,1.967,0.275C4.328,11.035,4.309,11.135,4.29,11.236z"/>
<path style="fill:#383839;" d="M9.866,16.989c0.114-0.502,0.228-1.003,0.342-1.505C10.733,16.117,10.425,16.601,9.866,16.989z"/>
<path style="fill:#808285;" d="M9.907,4.992c0.605,0.594,0.412,1.113,0.221,1.93C9.813,6.154,9.813,5.655,9.907,4.992z"/>
<path style="fill:#595A5C;" d="M6.265,4.537c0.342,0.371,0.508,0.82,0.68,1.431C6.264,5.76,6.277,5.165,5.987,4.827
	C6.017,4.671,6.111,4.575,6.265,4.537z"/>
<path style="fill:#202021;" d="M17.472,15.41c-0.434-0.24-0.91-0.43-1.163-0.937c0.775-0.326,0.99,0.432,1.444,0.696
	C17.766,15.375,17.719,15.51,17.472,15.41z"/>
<path style="fill:#525255;" d="M11.059,5.365c0.457,0.605,0.448,1.028,0.39,1.452c-0.006,0.04-0.248,0.113-0.289,0.074
	C10.728,6.481,11.072,6.06,11.059,5.365z"/>
<path style="fill:#505052;" d="M12.762,3.895c0.02-0.579-0.162-1.017,0.348-1.202c0.069-0.025,0.248,0.078,0.284,0.161
	C13.628,3.405,13.005,3.424,12.762,3.895z"/>
<path style="fill:#191919;" d="M13.672,5.042c0.237-0.32,0.22-0.836,0.723-0.947c0.058-0.013,0.191,0.053,0.194,0.091
	c0.053,0.55-0.501,0.713-0.714,1.096C13.679,5.31,13.533,5.296,13.672,5.042z"/>
<path style="fill:#0B0A0B;" d="M8.11,6.274C8.352,6.701,8.831,7.045,8.601,7.67c-0.551-0.207-0.48-0.762-0.695-1.142
	C7.767,6.277,7.913,6.255,8.11,6.274z"/>
<path style="fill:#0B0A0B;" d="M18.066,13.416c0.321,0.111,0.672,0.174,0.922,0.604c-0.576,0.039-1.018-0.138-1.456-0.34
	C17.523,13.215,17.821,13.369,18.066,13.416z"/>
<path style="fill:#202021;" d="M4.982,11.917c0.34-0.227,0.679-0.511,1.134-0.351c0.065,0.023,0.139,0.252,0.111,0.277
	C5.857,12.179,5.418,11.916,4.982,11.917z"/>
<path style="fill:#48484A;" d="M6.766,9.837c0.339,0.253,0.866,0.113,1.132,0.537c-0.621,0.616-0.98-0.014-1.411-0.286
	C6.457,9.866,6.49,9.716,6.766,9.837z"/>
<path style="fill:#58595B;" d="M13.672,5.042c0.068,0.08,0.135,0.16,0.203,0.24c-0.199,0.302-0.009,0.817-0.514,0.945
	c-0.053,0.013-0.176-0.048-0.182-0.088C13.109,5.672,13.416,5.367,13.672,5.042z"/>
<path style="fill:#3D3C3E;" d="M3.084,13.442c0.492-0.169,0.984-0.339,1.66-0.571c-0.29,0.768-0.798,0.634-1.153,0.783
	C3.445,13.529,3.195,13.65,3.084,13.442z"/>
<path style="fill:#595A5C;" d="M15.866,6.007c0.008-0.517,0.259-0.74,0.58-0.873c0.052-0.021,0.308,0.23,0.287,0.29
	C16.61,5.773,16.301,5.908,15.866,6.007z"/>
<path style="fill:#454547;" d="M15.118,7.915c-0.27,0.361-0.543,0.716-1.13,0.437c0.177-0.363,0.579-0.445,0.853-0.672
	C15.113,7.547,15.14,7.702,15.118,7.915z"/>
<path style="fill:#5B5C5F;" d="M17.53,6.708c-0.331,0.238-0.67,0.459-1.243,0.49c0.233-0.666,0.751-0.659,1.179-0.782
	C17.601,6.488,17.623,6.585,17.53,6.708z"/>
<path style="fill:#525355;" d="M10.805,17.538c0.045,0.08,0.09,0.159,0.136,0.239c0.036,0.082,0.072,0.163,0.108,0.245
	c-0.075,0.083-0.151,0.165-0.226,0.248c-0.278,0.147-0.36-0.087-0.48-0.247C10.215,17.591,10.34,17.403,10.805,17.538z"/>
<path style="fill:#565759;" d="M6.268,16.926c-0.004,0.495-0.233,0.708-0.789,0.592c0.091-0.471,0.472-0.686,0.741-0.981
	C6.345,16.654,6.361,16.784,6.268,16.926z"/>
<path style="fill:#5C5D5F;" d="M7.516,17.189c0.107-0.51,0.027-0.861,0.356-1.072c0.067-0.043,0.307,0.03,0.31,0.063
	C8.215,16.552,8.039,16.826,7.516,17.189z"/>
<path style="fill:#363637;" d="M6.268,16.926c-0.016-0.13-0.031-0.259-0.047-0.389c0.108-0.208,0.231-0.438,0.5-0.386
	c0.103,0.02,0.242,0.223,0.242,0.343C6.965,16.979,6.531,16.826,6.268,16.926z"/>
<path style="fill:#232223;" d="M17.53,6.708c-0.022-0.098-0.043-0.195-0.065-0.293c0.216-0.332,0.51-0.507,0.907-0.388
	c0.065,0.019,0.148,0.238,0.112,0.29C18.259,6.65,17.859,6.599,17.53,6.708z"/>
<path style="fill:#636467;" d="M13.081,15.29c0.5,0.217,0.48,0.624,0.59,1.136C13.029,16.139,13.168,15.661,13.081,15.29z"/>
<path style="fill:#656669;" d="M14.393,15.411c-0.492-0.171-0.716-0.39-0.712-0.779c0-0.04,0.126-0.123,0.174-0.111
	C14.243,14.621,14.352,14.914,14.393,15.411z"/>
<path style="fill:#303031;" d="M12.033,6.987c0.327,0.295,0.128,0.716,0.254,1.059c-0.362,0.238-0.605,0.191-0.543-0.291
	C11.779,7.491,11.933,7.242,12.033,6.987z"/>
<path style="fill:#4E4E50;" d="M15.118,7.915c-0.092-0.078-0.185-0.156-0.277-0.235c0.021-0.032,0.037-0.087,0.065-0.094
	c0.372-0.095,0.693-0.793,1.023-0.355C16.115,7.479,15.466,7.747,15.118,7.915z"/>
<path style="fill:#5F6062;" d="M18.066,13.416c-0.178,0.088-0.356,0.176-0.534,0.264c-0.277,0.004-0.712-0.107-0.554-0.348
	C17.263,12.901,17.704,13.248,18.066,13.416z"/>
<path style="fill:#5C5D60;" d="M6.757,15.15c0.064,0.063,0.129,0.127,0.193,0.19c-0.1,0.274-0.284,0.461-0.577,0.502
	c-0.115,0.016-0.215-0.051-0.189-0.204C6.239,15.314,6.473,15.204,6.757,15.15z"/>
<path style="fill:#4D4D4F;" d="M7.752,9.403c-0.634-0.033-0.826-0.32-1.045-0.754C7.232,8.709,7.514,8.886,7.752,9.403z"/>
<path style="fill:#403F41;" d="M13.692,6.784c0.273-0.438,0.464-0.745,0.655-1.051C14.471,6.24,14.43,6.642,13.692,6.784z"/>
<path style="fill:#0B0A0B;" d="M17.989,9.379c-0.467-0.108-0.987,0.162-1.418-0.2C17.044,9.244,17.583,8.846,17.989,9.379z"/>
<path style="fill:#48484A;" d="M6.265,4.537C6.172,4.633,6.079,4.73,5.987,4.827c-0.258-0.152-0.425-0.456-0.218-0.63
	C6.082,3.936,6.187,4.283,6.265,4.537z"/>
<path style="fill:#67686B;" d="M9.105,12.954c0.098,0.097,0.195,0.193,0.293,0.29c-0.169,0.242-0.271,0.551-0.647,0.615
	C8.651,13.463,8.906,13.219,9.105,12.954z"/>
<path style="fill:#717375;" d="M8.172,11.335c-0.217,0.367-0.718,0.078-0.95,0.412c-0.319-0.175-0.43-0.353,0.043-0.419
	C7.561,11.287,7.869,11.33,8.172,11.335z"/>
<path style="fill:#515254;" d="M6.755,11.072c-0.388,0.337-0.636-0.084-0.925-0.157C6.134,10.854,6.466,10.552,6.755,11.072z"/>
<path style="fill:#0B0A0B;" d="M3.084,13.442c0.169,0.071,0.338,0.141,0.507,0.212c-0.142,0.054-0.284,0.11-0.426,0.163
	c-0.173,0.065-0.452,0.209-0.507,0.036C2.585,13.621,2.83,13.47,3.084,13.442z"/>
<path style="fill:#5F6062;" d="M6.766,9.837c-0.093,0.083-0.186,0.167-0.279,0.25C6.209,9.973,5.89,9.916,5.73,9.455
	C6.146,9.536,6.5,9.526,6.766,9.837z"/>
<path style="fill:#333334;" d="M12.687,4.098c0.097,0.449,0.222,0.82-0.085,0.872c-0.399,0.067-0.203-0.27-0.144-0.46
	C12.488,4.413,12.557,4.327,12.687,4.098z"/>
<path style="fill:#555658;" d="M17.472,15.41c0.094-0.08,0.187-0.16,0.281-0.24c0.334,0.015,0.721,0.2,0.507,0.5
	C17.981,16.062,17.709,15.609,17.472,15.41z"/>
<path style="fill:#4C4C4E;" d="M8.11,6.274C8.042,6.359,7.975,6.443,7.907,6.528C7.662,6.356,7.43,5.941,7.556,5.854
	C7.956,5.577,7.993,6.029,8.11,6.274z"/>
<path style="fill:#525254;" d="M11.805,3.395c0.26,0.064,0.243,0.215,0.21,0.362c-0.035,0.156-0.114,0.301-0.297,0.27
	c-0.174-0.029-0.245-0.188-0.178-0.336C11.596,3.568,11.728,3.478,11.805,3.395z"/>
<path style="fill:#707274;" d="M3.629,15.452c0.178,0.037,0.252,0.145,0.214,0.32C3.802,15.958,3.639,16,3.499,15.97
	c-0.07-0.015-0.156-0.177-0.15-0.267C3.357,15.561,3.426,15.409,3.629,15.452z"/>
<path style="fill:#565759;" d="M10.342,18.021c0.16,0.082,0.32,0.165,0.48,0.247c-0.119,0.22-0.238,0.44-0.372,0.69
	C10.214,18.614,10.345,18.312,10.342,18.021z"/>
<path style="fill:#0B0A0B;" d="M14.861,9.613c-0.151-0.07-0.301-0.139-0.452-0.209c0.202-0.139,0.416-0.402,0.657-0.164
	C15.231,9.401,15.084,9.568,14.861,9.613z"/>
<path style="fill:#606163;" d="M19.096,9.688c-0.068,0.073-0.17,0.183-0.272,0.294c-0.104-0.1-0.208-0.2-0.311-0.3
	c0.105-0.107,0.194-0.268,0.321-0.306C18.962,9.337,19.14,9.405,19.096,9.688z"/>
</svg>
